# xmcd
#
# Track frame offsets:
#	150
#	16682
#	29187
#	41917
#	53749
#	64898
#	77319
#	90692
#	109361
#	128892
#	138775
#	150476
#	164114
#	177761
#	193431
#	205813
#	216902
#	230211
#
# Disc length: 3187 seconds
#
# Revision: 0
# Processed by: cddbd v1.5.1PL0 Copyright (c) Steve Scherf et al.
# Submitted via: dBpowerAMP V4.0
#
DISCID=070c7112
DTITLE=Various Artist - That's Soul Vol.04 Cd 1
DYEAR=1900
DGENRE=
TTITLE0=Ike and Tina Turner - River deep Mauntain High
TTITLE1=Gladysa Knight and The Pips - I Heard it Trough The Grapevine
TTITLE2=Diana Ross and The Surpremes - Reflections
TTITLE3=Four Tops - Standing In The Shadow Of Love
TTITLE4=The Drifters - Saterday Night At The Movies
TTITLE5=Aretha Franklin - A Natural Wom,an
TTITLE6=Wilson Pickett - 6345789
TTITLE7=Otis Redding - Papa's Got A Brand New Bag
TTITLE8=Booker T and The MG's - Time Is Tight
TTITLE9=Arthur Conley - People Sure Act Funny
TTITLE10=Erma Franklin - Piece Of My Heart
TTITLE11=Martha Reeves and The Vandellas - Always Something To Remind Me
TTITLE12=Eddie Floyd - Big Bird
TTITLE13=The Temtations - Cloud Nine
TTITLE14=Smokey Robinson and The Miracles - Mickey's Money
TTITLE15=Marvin Gaye and Tammt Terri - Ain't No Mountain High Enough
TTITLE16=Dionne Warwick - Do You Know The Way To San Jose
TTITLE17=The Veltones - Fool In Love
EXTD=
EXTT0=
EXTT1=
EXTT2=
EXTT3=
EXTT4=
EXTT5=
EXTT6=
EXTT7=
EXTT8=
EXTT9=
EXTT10=
EXTT11=
EXTT12=
EXTT13=
EXTT14=
EXTT15=
EXTT16=
EXTT17=
PLAYORDER=
